<svg width="145" height="127" viewBox="0 0 145 127" fill="none" xmlns="http://www.w3.org/2000/svg">
<circle cx="3.10711" cy="2.88494" r="2.88494" fill="#DFEEFF"/>
<circle cx="3.10711" cy="20.1945" r="2.88494" fill="#DFEEFF"/>
<circle cx="3.10711" cy="37.5043" r="2.88494" fill="#DFEEFF"/>
<circle cx="3.10711" cy="54.8139" r="2.88494" fill="#DFEEFF"/>
<circle cx="3.10711" cy="72.1235" r="2.88494" fill="#DFEEFF"/>
<circle cx="3.10711" cy="89.4328" r="2.88494" fill="#DFEEFF"/>
<circle cx="3.10711" cy="106.743" r="2.88494" fill="#DFEEFF"/>
<circle cx="3.10711" cy="124.052" r="2.88494" fill="#DFEEFF"/>
<circle cx="20.4168" cy="2.88494" r="2.88494" fill="#DFEEFF"/>
<circle cx="20.4168" cy="20.1945" r="2.88494" fill="#DFEEFF"/>
<circle cx="20.4168" cy="37.5043" r="2.88494" fill="#DFEEFF"/>
<circle cx="20.4168" cy="54.8139" r="2.88494" fill="#DFEEFF"/>
<circle cx="20.4168" cy="72.1235" r="2.88494" fill="#DFEEFF"/>
<circle cx="20.4168" cy="89.4328" r="2.88494" fill="#DFEEFF"/>
<circle cx="20.4168" cy="106.743" r="2.88494" fill="#DFEEFF"/>
<circle cx="20.4168" cy="124.052" r="2.88494" fill="#DFEEFF"/>
<circle cx="37.7264" cy="2.88494" r="2.88494" fill="#DFEEFF"/>
<circle cx="37.7264" cy="20.1945" r="2.88494" fill="#DFEEFF"/>
<circle cx="37.7264" cy="37.5043" r="2.88494" fill="#DFEEFF"/>
<circle cx="37.7264" cy="54.8139" r="2.88494" fill="#DFEEFF"/>
<circle cx="37.7264" cy="72.1235" r="2.88494" fill="#DFEEFF"/>
<circle cx="37.7264" cy="89.4328" r="2.88494" fill="#DFEEFF"/>
<circle cx="37.7264" cy="106.743" r="2.88494" fill="#DFEEFF"/>
<circle cx="37.7264" cy="124.052" r="2.88494" fill="#DFEEFF"/>
<circle cx="55.0361" cy="2.88494" r="2.88494" fill="#DFEEFF"/>
<circle cx="55.0361" cy="20.1945" r="2.88494" fill="#DFEEFF"/>
<circle cx="55.0361" cy="37.5043" r="2.88494" fill="#DFEEFF"/>
<circle cx="55.0361" cy="54.8139" r="2.88494" fill="#DFEEFF"/>
<circle cx="55.0361" cy="72.1235" r="2.88494" fill="#DFEEFF"/>
<circle cx="55.0361" cy="89.4328" r="2.88494" fill="#DFEEFF"/>
<circle cx="55.0361" cy="106.743" r="2.88494" fill="#DFEEFF"/>
<circle cx="55.0361" cy="124.052" r="2.88494" fill="#DFEEFF"/>
<circle cx="72.3458" cy="2.88494" r="2.88494" fill="#DFEEFF"/>
<circle cx="72.3458" cy="20.1945" r="2.88494" fill="#DFEEFF"/>
<circle cx="72.3458" cy="37.5043" r="2.88494" fill="#DFEEFF"/>
<circle cx="72.3458" cy="54.8139" r="2.88494" fill="#DFEEFF"/>
<circle cx="72.3458" cy="72.1235" r="2.88494" fill="#DFEEFF"/>
<circle cx="72.3458" cy="89.4328" r="2.88494" fill="#DFEEFF"/>
<circle cx="72.3458" cy="106.743" r="2.88494" fill="#DFEEFF"/>
<circle cx="72.3458" cy="124.052" r="2.88494" fill="#DFEEFF"/>
<circle cx="89.6552" cy="2.88494" r="2.88494" fill="#DFEEFF"/>
<circle cx="89.6552" cy="20.1945" r="2.88494" fill="#DFEEFF"/>
<circle cx="89.6552" cy="37.5043" r="2.88494" fill="#DFEEFF"/>
<circle cx="89.6552" cy="54.8139" r="2.88494" fill="#DFEEFF"/>
<circle cx="89.6552" cy="72.1235" r="2.88494" fill="#DFEEFF"/>
<circle cx="89.6552" cy="89.4328" r="2.88494" fill="#DFEEFF"/>
<circle cx="89.6552" cy="106.743" r="2.88494" fill="#DFEEFF"/>
<circle cx="89.6552" cy="124.052" r="2.88494" fill="#DFEEFF"/>
<circle cx="106.965" cy="2.88494" r="2.88494" fill="#DFEEFF"/>
<circle cx="106.965" cy="20.1945" r="2.88494" fill="#DFEEFF"/>
<circle cx="106.965" cy="37.5043" r="2.88494" fill="#DFEEFF"/>
<circle cx="106.965" cy="54.8139" r="2.88494" fill="#DFEEFF"/>
<circle cx="106.965" cy="72.1235" r="2.88494" fill="#DFEEFF"/>
<circle cx="106.965" cy="89.4328" r="2.88494" fill="#DFEEFF"/>
<circle cx="106.965" cy="106.743" r="2.88494" fill="#DFEEFF"/>
<circle cx="106.965" cy="124.052" r="2.88494" fill="#DFEEFF"/>
<circle cx="124.274" cy="2.88494" r="2.88494" fill="#DFEEFF"/>
<circle cx="124.274" cy="20.1945" r="2.88494" fill="#DFEEFF"/>
<circle cx="124.274" cy="37.5043" r="2.88494" fill="#DFEEFF"/>
<circle cx="124.274" cy="54.8139" r="2.88494" fill="#DFEEFF"/>
<circle cx="124.274" cy="72.1235" r="2.88494" fill="#DFEEFF"/>
<circle cx="124.274" cy="89.4328" r="2.88494" fill="#DFEEFF"/>
<circle cx="124.274" cy="106.743" r="2.88494" fill="#DFEEFF"/>
<circle cx="124.274" cy="124.052" r="2.88494" fill="#DFEEFF"/>
<circle cx="141.584" cy="2.88494" r="2.88494" fill="#DFEEFF"/>
<circle cx="141.584" cy="20.1945" r="2.88494" fill="#DFEEFF"/>
<circle cx="141.584" cy="37.5043" r="2.88494" fill="#DFEEFF"/>
<circle cx="141.584" cy="54.8139" r="2.88494" fill="#DFEEFF"/>
<circle cx="141.584" cy="72.1235" r="2.88494" fill="#DFEEFF"/>
<circle cx="141.584" cy="89.4328" r="2.88494" fill="#DFEEFF"/>
<circle cx="141.584" cy="106.743" r="2.88494" fill="#DFEEFF"/>
<circle cx="141.584" cy="124.052" r="2.88494" fill="#DFEEFF"/>
</svg>
