<svg width="327" height="130" viewBox="0 0 327 130" fill="none" xmlns="http://www.w3.org/2000/svg">
<ellipse cx="171.033" cy="2.95312" rx="2.83034" ry="2.95312" fill="#F4F4F4"/>
<ellipse cx="171.033" cy="20.6719" rx="2.83034" ry="2.95312" fill="#F4F4F4"/>
<ellipse cx="171.033" cy="38.3906" rx="2.83034" ry="2.95312" fill="#F4F4F4"/>
<ellipse cx="171.033" cy="56.1094" rx="2.83034" ry="2.95312" fill="#F4F4F4"/>
<ellipse cx="171.033" cy="73.8281" rx="2.83034" ry="2.95312" fill="#F4F4F4"/>
<ellipse cx="171.033" cy="91.5469" rx="2.83034" ry="2.95312" fill="#F4F4F4"/>
<ellipse cx="171.033" cy="109.266" rx="2.83034" ry="2.95312" fill="#F4F4F4"/>
<ellipse cx="171.033" cy="126.984" rx="2.83034" ry="2.95312" fill="#F4F4F4"/>
<ellipse cx="188.015" cy="2.95312" rx="2.83034" ry="2.95312" fill="#F4F4F4"/>
<ellipse cx="188.015" cy="20.6719" rx="2.83034" ry="2.95312" fill="#F4F4F4"/>
<ellipse cx="188.015" cy="38.3906" rx="2.83034" ry="2.95312" fill="#F4F4F4"/>
<ellipse cx="188.015" cy="56.1094" rx="2.83034" ry="2.95312" fill="#F4F4F4"/>
<ellipse cx="188.015" cy="73.8281" rx="2.83034" ry="2.95312" fill="#F4F4F4"/>
<ellipse cx="188.015" cy="91.5469" rx="2.83034" ry="2.95312" fill="#F4F4F4"/>
<ellipse cx="188.015" cy="109.266" rx="2.83034" ry="2.95312" fill="#F4F4F4"/>
<ellipse cx="188.015" cy="126.984" rx="2.83034" ry="2.95312" fill="#F4F4F4"/>
<ellipse cx="204.998" cy="2.95312" rx="2.83034" ry="2.95312" fill="#F4F4F4"/>
<ellipse cx="204.998" cy="20.6719" rx="2.83034" ry="2.95312" fill="#F4F4F4"/>
<ellipse cx="204.998" cy="38.3906" rx="2.83034" ry="2.95312" fill="#F4F4F4"/>
<ellipse cx="204.998" cy="56.1094" rx="2.83034" ry="2.95312" fill="#F4F4F4"/>
<ellipse cx="204.998" cy="73.8281" rx="2.83034" ry="2.95312" fill="#F4F4F4"/>
<ellipse cx="204.998" cy="91.5469" rx="2.83034" ry="2.95312" fill="#F4F4F4"/>
<ellipse cx="204.998" cy="109.266" rx="2.83034" ry="2.95312" fill="#F4F4F4"/>
<ellipse cx="204.998" cy="126.984" rx="2.83034" ry="2.95312" fill="#F4F4F4"/>
<ellipse cx="221.98" cy="2.95312" rx="2.83034" ry="2.95312" fill="#F4F4F4"/>
<ellipse cx="221.98" cy="20.6719" rx="2.83034" ry="2.95312" fill="#F4F4F4"/>
<ellipse cx="221.98" cy="38.3906" rx="2.83034" ry="2.95312" fill="#F4F4F4"/>
<ellipse cx="221.98" cy="56.1094" rx="2.83034" ry="2.95312" fill="#F4F4F4"/>
<ellipse cx="221.98" cy="73.8281" rx="2.83034" ry="2.95312" fill="#F4F4F4"/>
<ellipse cx="221.98" cy="91.5469" rx="2.83034" ry="2.95312" fill="#F4F4F4"/>
<ellipse cx="221.98" cy="109.266" rx="2.83034" ry="2.95312" fill="#F4F4F4"/>
<ellipse cx="221.98" cy="126.984" rx="2.83034" ry="2.95312" fill="#F4F4F4"/>
<ellipse cx="238.962" cy="2.95312" rx="2.83034" ry="2.95312" fill="#F4F4F4"/>
<ellipse cx="238.962" cy="20.6719" rx="2.83034" ry="2.95312" fill="#F4F4F4"/>
<ellipse cx="238.962" cy="38.3906" rx="2.83034" ry="2.95312" fill="#F4F4F4"/>
<ellipse cx="238.962" cy="56.1094" rx="2.83034" ry="2.95312" fill="#F4F4F4"/>
<ellipse cx="238.962" cy="73.8281" rx="2.83034" ry="2.95312" fill="#F4F4F4"/>
<ellipse cx="238.962" cy="91.5469" rx="2.83034" ry="2.95312" fill="#F4F4F4"/>
<ellipse cx="238.962" cy="109.266" rx="2.83034" ry="2.95312" fill="#F4F4F4"/>
<ellipse cx="238.962" cy="126.984" rx="2.83034" ry="2.95312" fill="#F4F4F4"/>
<ellipse cx="255.944" cy="2.95312" rx="2.83034" ry="2.95312" fill="#F4F4F4"/>
<ellipse cx="255.944" cy="20.6719" rx="2.83034" ry="2.95312" fill="#F4F4F4"/>
<ellipse cx="255.944" cy="38.3906" rx="2.83034" ry="2.95312" fill="#F4F4F4"/>
<ellipse cx="255.944" cy="56.1094" rx="2.83034" ry="2.95312" fill="#F4F4F4"/>
<ellipse cx="255.944" cy="73.8281" rx="2.83034" ry="2.95312" fill="#F4F4F4"/>
<ellipse cx="255.944" cy="91.5469" rx="2.83034" ry="2.95312" fill="#F4F4F4"/>
<ellipse cx="255.944" cy="109.266" rx="2.83034" ry="2.95312" fill="#F4F4F4"/>
<ellipse cx="255.944" cy="126.984" rx="2.83034" ry="2.95312" fill="#F4F4F4"/>
<ellipse cx="272.926" cy="2.95312" rx="2.83034" ry="2.95312" fill="#F4F4F4"/>
<ellipse cx="272.926" cy="20.6719" rx="2.83034" ry="2.95312" fill="#F4F4F4"/>
<ellipse cx="272.926" cy="38.3906" rx="2.83034" ry="2.95312" fill="#F4F4F4"/>
<ellipse cx="272.926" cy="56.1094" rx="2.83034" ry="2.95312" fill="#F4F4F4"/>
<ellipse cx="272.926" cy="73.8281" rx="2.83034" ry="2.95312" fill="#F4F4F4"/>
<ellipse cx="272.926" cy="91.5469" rx="2.83034" ry="2.95312" fill="#F4F4F4"/>
<ellipse cx="272.926" cy="109.266" rx="2.83034" ry="2.95312" fill="#F4F4F4"/>
<ellipse cx="272.926" cy="126.984" rx="2.83034" ry="2.95312" fill="#F4F4F4"/>
<ellipse cx="289.908" cy="2.95312" rx="2.83034" ry="2.95312" fill="#F4F4F4"/>
<ellipse cx="289.908" cy="20.6719" rx="2.83034" ry="2.95312" fill="#F4F4F4"/>
<ellipse cx="289.908" cy="38.3906" rx="2.83034" ry="2.95312" fill="#F4F4F4"/>
<ellipse cx="289.908" cy="56.1094" rx="2.83034" ry="2.95312" fill="#F4F4F4"/>
<ellipse cx="289.908" cy="73.8281" rx="2.83034" ry="2.95312" fill="#F4F4F4"/>
<ellipse cx="289.908" cy="91.5469" rx="2.83034" ry="2.95312" fill="#F4F4F4"/>
<ellipse cx="289.908" cy="109.266" rx="2.83034" ry="2.95312" fill="#F4F4F4"/>
<ellipse cx="289.908" cy="126.984" rx="2.83034" ry="2.95312" fill="#F4F4F4"/>
<ellipse cx="306.89" cy="2.95312" rx="2.83034" ry="2.95312" fill="#F4F4F4"/>
<ellipse cx="306.89" cy="20.6719" rx="2.83034" ry="2.95312" fill="#F4F4F4"/>
<ellipse cx="306.89" cy="38.3906" rx="2.83034" ry="2.95312" fill="#F4F4F4"/>
<ellipse cx="306.89" cy="56.1094" rx="2.83034" ry="2.95312" fill="#F4F4F4"/>
<ellipse cx="306.89" cy="73.8281" rx="2.83034" ry="2.95312" fill="#F4F4F4"/>
<ellipse cx="306.89" cy="91.5469" rx="2.83034" ry="2.95312" fill="#F4F4F4"/>
<ellipse cx="306.89" cy="109.266" rx="2.83034" ry="2.95312" fill="#F4F4F4"/>
<ellipse cx="306.89" cy="126.984" rx="2.83034" ry="2.95312" fill="#F4F4F4"/>
<ellipse cx="323.872" cy="2.95312" rx="2.83034" ry="2.95312" fill="#F4F4F4"/>
<ellipse cx="323.872" cy="20.6719" rx="2.83034" ry="2.95312" fill="#F4F4F4"/>
<ellipse cx="323.872" cy="38.3906" rx="2.83034" ry="2.95312" fill="#F4F4F4"/>
<ellipse cx="323.872" cy="56.1094" rx="2.83034" ry="2.95312" fill="#F4F4F4"/>
<ellipse cx="323.872" cy="73.8281" rx="2.83034" ry="2.95312" fill="#F4F4F4"/>
<ellipse cx="323.872" cy="91.5469" rx="2.83034" ry="2.95312" fill="#F4F4F4"/>
<ellipse cx="323.872" cy="109.266" rx="2.83034" ry="2.95312" fill="#F4F4F4"/>
<ellipse cx="323.872" cy="126.984" rx="2.83034" ry="2.95312" fill="#F4F4F4"/>
<ellipse cx="2.83034" cy="2.95312" rx="2.83034" ry="2.95312" fill="#F4F4F4"/>
<ellipse cx="2.83034" cy="20.6719" rx="2.83034" ry="2.95312" fill="#F4F4F4"/>
<ellipse cx="2.83034" cy="38.3906" rx="2.83034" ry="2.95312" fill="#F4F4F4"/>
<ellipse cx="2.83034" cy="56.1094" rx="2.83034" ry="2.95312" fill="#F4F4F4"/>
<ellipse cx="2.83034" cy="73.8281" rx="2.83034" ry="2.95312" fill="#F4F4F4"/>
<ellipse cx="2.83034" cy="91.5469" rx="2.83034" ry="2.95312" fill="#F4F4F4"/>
<ellipse cx="2.83034" cy="109.266" rx="2.83034" ry="2.95312" fill="#F4F4F4"/>
<ellipse cx="2.83034" cy="126.984" rx="2.83034" ry="2.95312" fill="#F4F4F4"/>
<ellipse cx="19.8124" cy="2.95312" rx="2.83034" ry="2.95312" fill="#F4F4F4"/>
<ellipse cx="19.8124" cy="20.6719" rx="2.83034" ry="2.95312" fill="#F4F4F4"/>
<ellipse cx="19.8124" cy="38.3906" rx="2.83034" ry="2.95312" fill="#F4F4F4"/>
<ellipse cx="19.8124" cy="56.1094" rx="2.83034" ry="2.95312" fill="#F4F4F4"/>
<ellipse cx="19.8124" cy="73.8281" rx="2.83034" ry="2.95312" fill="#F4F4F4"/>
<ellipse cx="19.8124" cy="91.5469" rx="2.83034" ry="2.95312" fill="#F4F4F4"/>
<ellipse cx="19.8124" cy="109.266" rx="2.83034" ry="2.95312" fill="#F4F4F4"/>
<ellipse cx="19.8124" cy="126.984" rx="2.83034" ry="2.95312" fill="#F4F4F4"/>
<ellipse cx="36.7944" cy="2.95312" rx="2.83034" ry="2.95312" fill="#F4F4F4"/>
<ellipse cx="36.7944" cy="20.6719" rx="2.83034" ry="2.95312" fill="#F4F4F4"/>
<ellipse cx="36.7944" cy="38.3906" rx="2.83034" ry="2.95312" fill="#F4F4F4"/>
<ellipse cx="36.7944" cy="56.1094" rx="2.83034" ry="2.95312" fill="#F4F4F4"/>
<ellipse cx="36.7944" cy="73.8281" rx="2.83034" ry="2.95312" fill="#F4F4F4"/>
<ellipse cx="36.7944" cy="91.5469" rx="2.83034" ry="2.95312" fill="#F4F4F4"/>
<ellipse cx="36.7944" cy="109.266" rx="2.83034" ry="2.95312" fill="#F4F4F4"/>
<ellipse cx="36.7944" cy="126.984" rx="2.83034" ry="2.95312" fill="#F4F4F4"/>
<ellipse cx="53.7765" cy="2.95312" rx="2.83034" ry="2.95312" fill="#F4F4F4"/>
<ellipse cx="53.7765" cy="20.6719" rx="2.83034" ry="2.95312" fill="#F4F4F4"/>
<ellipse cx="53.7765" cy="38.3906" rx="2.83034" ry="2.95312" fill="#F4F4F4"/>
<ellipse cx="53.7765" cy="56.1094" rx="2.83034" ry="2.95312" fill="#F4F4F4"/>
<ellipse cx="53.7765" cy="73.8281" rx="2.83034" ry="2.95312" fill="#F4F4F4"/>
<ellipse cx="53.7765" cy="91.5469" rx="2.83034" ry="2.95312" fill="#F4F4F4"/>
<ellipse cx="53.7765" cy="109.266" rx="2.83034" ry="2.95312" fill="#F4F4F4"/>
<ellipse cx="53.7765" cy="126.984" rx="2.83034" ry="2.95312" fill="#F4F4F4"/>
<ellipse cx="70.7585" cy="2.95312" rx="2.83034" ry="2.95312" fill="#F4F4F4"/>
<ellipse cx="70.7585" cy="20.6719" rx="2.83034" ry="2.95312" fill="#F4F4F4"/>
<ellipse cx="70.7585" cy="38.3906" rx="2.83034" ry="2.95312" fill="#F4F4F4"/>
<ellipse cx="70.7585" cy="56.1094" rx="2.83034" ry="2.95312" fill="#F4F4F4"/>
<ellipse cx="70.7585" cy="73.8281" rx="2.83034" ry="2.95312" fill="#F4F4F4"/>
<ellipse cx="70.7585" cy="91.5469" rx="2.83034" ry="2.95312" fill="#F4F4F4"/>
<ellipse cx="70.7585" cy="109.266" rx="2.83034" ry="2.95312" fill="#F4F4F4"/>
<ellipse cx="70.7585" cy="126.984" rx="2.83034" ry="2.95312" fill="#F4F4F4"/>
<ellipse cx="87.7406" cy="2.95312" rx="2.83034" ry="2.95312" fill="#F4F4F4"/>
<ellipse cx="87.7406" cy="20.6719" rx="2.83034" ry="2.95312" fill="#F4F4F4"/>
<ellipse cx="87.7406" cy="38.3906" rx="2.83034" ry="2.95312" fill="#F4F4F4"/>
<ellipse cx="87.7406" cy="56.1094" rx="2.83034" ry="2.95312" fill="#F4F4F4"/>
<ellipse cx="87.7406" cy="73.8281" rx="2.83034" ry="2.95312" fill="#F4F4F4"/>
<ellipse cx="87.7406" cy="91.5469" rx="2.83034" ry="2.95312" fill="#F4F4F4"/>
<ellipse cx="87.7406" cy="109.266" rx="2.83034" ry="2.95312" fill="#F4F4F4"/>
<ellipse cx="87.7406" cy="126.984" rx="2.83034" ry="2.95312" fill="#F4F4F4"/>
<ellipse cx="104.723" cy="2.95312" rx="2.83034" ry="2.95312" fill="#F4F4F4"/>
<ellipse cx="104.723" cy="20.6719" rx="2.83034" ry="2.95312" fill="#F4F4F4"/>
<ellipse cx="104.723" cy="38.3906" rx="2.83034" ry="2.95312" fill="#F4F4F4"/>
<ellipse cx="104.723" cy="56.1094" rx="2.83034" ry="2.95312" fill="#F4F4F4"/>
<ellipse cx="104.723" cy="73.8281" rx="2.83034" ry="2.95312" fill="#F4F4F4"/>
<ellipse cx="104.723" cy="91.5469" rx="2.83034" ry="2.95312" fill="#F4F4F4"/>
<ellipse cx="104.723" cy="109.266" rx="2.83034" ry="2.95312" fill="#F4F4F4"/>
<ellipse cx="104.723" cy="126.984" rx="2.83034" ry="2.95312" fill="#F4F4F4"/>
<ellipse cx="121.705" cy="2.95312" rx="2.83034" ry="2.95312" fill="#F4F4F4"/>
<ellipse cx="121.705" cy="20.6719" rx="2.83034" ry="2.95312" fill="#F4F4F4"/>
<ellipse cx="121.705" cy="38.3906" rx="2.83034" ry="2.95312" fill="#F4F4F4"/>
<ellipse cx="121.705" cy="56.1094" rx="2.83034" ry="2.95312" fill="#F4F4F4"/>
<ellipse cx="121.705" cy="73.8281" rx="2.83034" ry="2.95312" fill="#F4F4F4"/>
<ellipse cx="121.705" cy="91.5469" rx="2.83034" ry="2.95312" fill="#F4F4F4"/>
<ellipse cx="121.705" cy="109.266" rx="2.83034" ry="2.95312" fill="#F4F4F4"/>
<ellipse cx="121.705" cy="126.984" rx="2.83034" ry="2.95312" fill="#F4F4F4"/>
<ellipse cx="138.687" cy="2.95312" rx="2.83034" ry="2.95312" fill="#F4F4F4"/>
<ellipse cx="138.687" cy="20.6719" rx="2.83034" ry="2.95312" fill="#F4F4F4"/>
<ellipse cx="138.687" cy="38.3906" rx="2.83034" ry="2.95312" fill="#F4F4F4"/>
<ellipse cx="138.687" cy="56.1094" rx="2.83034" ry="2.95312" fill="#F4F4F4"/>
<ellipse cx="138.687" cy="73.8281" rx="2.83034" ry="2.95312" fill="#F4F4F4"/>
<ellipse cx="138.687" cy="91.5469" rx="2.83034" ry="2.95312" fill="#F4F4F4"/>
<ellipse cx="138.687" cy="109.266" rx="2.83034" ry="2.95312" fill="#F4F4F4"/>
<ellipse cx="138.687" cy="126.984" rx="2.83034" ry="2.95312" fill="#F4F4F4"/>
<ellipse cx="155.669" cy="2.95312" rx="2.83034" ry="2.95312" fill="#F4F4F4"/>
<ellipse cx="155.669" cy="20.6719" rx="2.83034" ry="2.95312" fill="#F4F4F4"/>
<ellipse cx="155.669" cy="38.3906" rx="2.83034" ry="2.95312" fill="#F4F4F4"/>
<ellipse cx="155.669" cy="56.1094" rx="2.83034" ry="2.95312" fill="#F4F4F4"/>
<ellipse cx="155.669" cy="73.8281" rx="2.83034" ry="2.95312" fill="#F4F4F4"/>
<ellipse cx="155.669" cy="91.5469" rx="2.83034" ry="2.95312" fill="#F4F4F4"/>
<ellipse cx="155.669" cy="109.266" rx="2.83034" ry="2.95312" fill="#F4F4F4"/>
<ellipse cx="155.669" cy="126.984" rx="2.83034" ry="2.95312" fill="#F4F4F4"/>
</svg>
